<svg xmlns="http://www.w3.org/2000/svg" xmlns:xlink="http://www.w3.org/1999/xlink" contentStyleType="text/css" height="995px" preserveAspectRatio="none" style="width:1907px;height:995px;background:#FFFFFF;" version="1.1" viewBox="0 0 1907 995" width="1907px" zoomAndPan="magnify"><title>Diagrama de Paquetes - Arquitectura por Capas</title><defs/><g><text fill="#000000" font-family="sans-serif" font-size="14" font-weight="bold" lengthAdjust="spacing" textLength="318.1992" x="787.4004" y="24.5332">Diagrama de Paquetes - Arquitectura por Capas</text><!--cluster Presentacion (controller)--><g id="cluster_Presentacion (controller)"><rect fill="none" height="456" rx="2.5" ry="2.5" style="stroke:#181818;stroke-width:1;" width="799" x="7" y="45.6094"/><text fill="#000000" font-family="sans-serif" font-size="14" font-weight="bold" lengthAdjust="spacing" textLength="165.7031" x="323.6484" y="62.1426">Presentacion (controller)</text></g><!--cluster Servicio (services)--><g id="cluster_Servicio (services)"><rect fill="none" height="340" rx="2.5" ry="2.5" style="stroke:#181818;stroke-width:1;" width="565" x="846" y="161.6094"/><text fill="#000000" font-family="sans-serif" font-size="14" font-weight="bold" lengthAdjust="spacing" textLength="123.7441" x="1066.6279" y="178.1426">Servicio (services)</text></g><!--cluster Persistencia (persistence)--><g id="cluster_Persistencia (persistence)"><rect fill="none" height="340" rx="2.5" ry="2.5" style="stroke:#181818;stroke-width:1;" width="642" x="547" y="541.6094"/><text fill="#000000" font-family="sans-serif" font-size="14" font-weight="bold" lengthAdjust="spacing" textLength="173.5303" x="781.2349" y="558.1426">Persistencia (persistence)</text></g><!--cluster Modelo (model)--><g id="cluster_Modelo (model)"><rect fill="none" height="332" rx="2.5" ry="2.5" style="stroke:#181818;stroke-width:1;" width="665" x="1229" y="657.6094"/><text fill="#000000" font-family="sans-serif" font-size="14" font-weight="bold" lengthAdjust="spacing" textLength="103.4346" x="1509.7827" y="674.1426">Modelo (model)</text></g><!--cluster Transversal (util)--><g id="cluster_Transversal (util)"><rect fill="none" height="116" rx="2.5" ry="2.5" style="stroke:#181818;stroke-width:1;" width="334" x="1535" y="277.6094"/><text fill="#000000" font-family="sans-serif" font-size="14" font-weight="bold" lengthAdjust="spacing" textLength="112.8135" x="1645.5933" y="294.1426">Transversal (util)</text></g><!--entity LoginController--><g id="elem_LoginController"><rect fill="#F1F1F1" height="47.6094" rx="2.5" ry="2.5" style="stroke:#181818;stroke-width:0.5;" width="134.9443" x="65.5" y="89.6094"/><rect fill="#F1F1F1" height="10" style="stroke:#181818;stroke-width:0.5;" width="15" x="180.4443" y="94.6094"/><rect fill="#F1F1F1" height="2" style="stroke:#181818;stroke-width:0.5;" width="4" x="178.4443" y="96.6094"/><rect fill="#F1F1F1" height="2" style="stroke:#181818;stroke-width:0.5;" width="4" x="178.4443" y="100.6094"/><text fill="#000000" font-family="sans-serif" font-size="14" lengthAdjust="spacing" textLength="94.9443" x="80.5" y="124.1426">LoginController</text></g><!--entity LogoutController--><g id="elem_LogoutController"><rect fill="#F1F1F1" height="47.6094" rx="2.5" ry="2.5" style="stroke:#181818;stroke-width:0.5;" width="143.5098" x="245" y="89.6094"/><rect fill="#F1F1F1" height="10" style="stroke:#181818;stroke-width:0.5;" width="15" x="368.5098" y="94.6094"/><rect fill="#F1F1F1" height="2" style="stroke:#181818;stroke-width:0.5;" width="4" x="366.5098" y="96.6094"/><rect fill="#F1F1F1" height="2" style="stroke:#181818;stroke-width:0.5;" width="4" x="366.5098" y="100.6094"/><text fill="#000000" font-family="sans-serif" font-size="14" lengthAdjust="spacing" textLength="103.5098" x="260" y="124.1426">LogoutController</text></g><!--entity RegistroController--><g id="elem_RegistroController"><rect fill="#F1F1F1" height="47.6094" rx="2.5" ry="2.5" style="stroke:#181818;stroke-width:0.5;" width="152.8203" x="428.5" y="89.6094"/><rect fill="#F1F1F1" height="10" style="stroke:#181818;stroke-width:0.5;" width="15" x="561.3203" y="94.6094"/><rect fill="#F1F1F1" height="2" style="stroke:#181818;stroke-width:0.5;" width="4" x="559.3203" y="96.6094"/><rect fill="#F1F1F1" height="2" style="stroke:#181818;stroke-width:0.5;" width="4" x="559.3203" y="100.6094"/><text fill="#000000" font-family="sans-serif" font-size="14" lengthAdjust="spacing" textLength="112.8203" x="443.5" y="124.1426">RegistroController</text></g><!--entity DentroController--><g id="elem_DentroController"><rect fill="#F1F1F1" height="47.6094" rx="2.5" ry="2.5" style="stroke:#181818;stroke-width:0.5;" width="142.71" x="618.5" y="89.6094"/><rect fill="#F1F1F1" height="10" style="stroke:#181818;stroke-width:0.5;" width="15" x="741.21" y="94.6094"/><rect fill="#F1F1F1" height="2" style="stroke:#181818;stroke-width:0.5;" width="4" x="739.21" y="96.6094"/><rect fill="#F1F1F1" height="2" style="stroke:#181818;stroke-width:0.5;" width="4" x="739.21" y="100.6094"/><text fill="#000000" font-family="sans-serif" font-size="14" lengthAdjust="spacing" textLength="102.71" x="633.5" y="124.1426">DentroController</text></g><!--entity RegistroIngresoController--><g id="elem_RegistroIngresoController"><rect fill="#F1F1F1" height="47.6094" rx="2.5" ry="2.5" style="stroke:#181818;stroke-width:0.5;" width="199.5166" x="32" y="205.6094"/><rect fill="#F1F1F1" height="10" style="stroke:#181818;stroke-width:0.5;" width="15" x="211.5166" y="210.6094"/><rect fill="#F1F1F1" height="2" style="stroke:#181818;stroke-width:0.5;" width="4" x="209.5166" y="212.6094"/><rect fill="#F1F1F1" height="2" style="stroke:#181818;stroke-width:0.5;" width="4" x="209.5166" y="216.6094"/><text fill="#000000" font-family="sans-serif" font-size="14" lengthAdjust="spacing" textLength="159.5166" x="47" y="240.1426">RegistroIngresoController</text></g><!--entity PagoController--><g id="elem_PagoController"><rect fill="#F1F1F1" height="47.6094" rx="2.5" ry="2.5" style="stroke:#181818;stroke-width:0.5;" width="133.3857" x="267.5" y="205.6094"/><rect fill="#F1F1F1" height="10" style="stroke:#181818;stroke-width:0.5;" width="15" x="380.8857" y="210.6094"/><rect fill="#F1F1F1" height="2" style="stroke:#181818;stroke-width:0.5;" width="4" x="378.8857" y="212.6094"/><rect fill="#F1F1F1" height="2" style="stroke:#181818;stroke-width:0.5;" width="4" x="378.8857" y="216.6094"/><text fill="#000000" font-family="sans-serif" font-size="14" lengthAdjust="spacing" textLength="93.3857" x="282.5" y="240.1426">PagoController</text></g><!--entity TarifaController--><g id="elem_TarifaController"><rect fill="#F1F1F1" height="47.6094" rx="2.5" ry="2.5" style="stroke:#181818;stroke-width:0.5;" width="136.4756" x="436" y="205.6094"/><rect fill="#F1F1F1" height="10" style="stroke:#181818;stroke-width:0.5;" width="15" x="552.4756" y="210.6094"/><rect fill="#F1F1F1" height="2" style="stroke:#181818;stroke-width:0.5;" width="4" x="550.4756" y="212.6094"/><rect fill="#F1F1F1" height="2" style="stroke:#181818;stroke-width:0.5;" width="4" x="550.4756" y="216.6094"/><text fill="#000000" font-family="sans-serif" font-size="14" lengthAdjust="spacing" textLength="96.4756" x="451" y="240.1426">TarifaController</text></g><!--entity VehiculoController--><g id="elem_VehiculoController"><rect fill="#F1F1F1" height="47.6094" rx="2.5" ry="2.5" style="stroke:#181818;stroke-width:0.5;" width="154.3926" x="607" y="205.6094"/><rect fill="#F1F1F1" height="10" style="stroke:#181818;stroke-width:0.5;" width="15" x="741.3926" y="210.6094"/><rect fill="#F1F1F1" height="2" style="stroke:#181818;stroke-width:0.5;" width="4" x="739.3926" y="212.6094"/><rect fill="#F1F1F1" height="2" style="stroke:#181818;stroke-width:0.5;" width="4" x="739.3926" y="216.6094"/><text fill="#000000" font-family="sans-serif" font-size="14" lengthAdjust="spacing" textLength="114.3926" x="622" y="240.1426">VehiculoController</text></g><!--entity ClienteController--><g id="elem_ClienteController"><rect fill="#F1F1F1" height="47.6094" rx="2.5" ry="2.5" style="stroke:#181818;stroke-width:0.5;" width="144.2686" x="31" y="321.6094"/><rect fill="#F1F1F1" height="10" style="stroke:#181818;stroke-width:0.5;" width="15" x="155.2686" y="326.6094"/><rect fill="#F1F1F1" height="2" style="stroke:#181818;stroke-width:0.5;" width="4" x="153.2686" y="328.6094"/><rect fill="#F1F1F1" height="2" style="stroke:#181818;stroke-width:0.5;" width="4" x="153.2686" y="332.6094"/><text fill="#000000" font-family="sans-serif" font-size="14" lengthAdjust="spacing" textLength="104.2686" x="46" y="356.1426">ClienteController</text></g><!--entity OperadorController--><g id="elem_OperadorController"><rect fill="#F1F1F1" height="47.6094" rx="2.5" ry="2.5" style="stroke:#181818;stroke-width:0.5;" width="159.834" x="210" y="321.6094"/><rect fill="#F1F1F1" height="10" style="stroke:#181818;stroke-width:0.5;" width="15" x="349.834" y="326.6094"/><rect fill="#F1F1F1" height="2" style="stroke:#181818;stroke-width:0.5;" width="4" x="347.834" y="328.6094"/><rect fill="#F1F1F1" height="2" style="stroke:#181818;stroke-width:0.5;" width="4" x="347.834" y="332.6094"/><text fill="#000000" font-family="sans-serif" font-size="14" lengthAdjust="spacing" textLength="119.834" x="225" y="356.1426">OperadorController</text></g><!--entity GerenteController--><g id="elem_GerenteController"><rect fill="#F1F1F1" height="47.6094" rx="2.5" ry="2.5" style="stroke:#181818;stroke-width:0.5;" width="151.2754" x="405.5" y="321.6094"/><rect fill="#F1F1F1" height="10" style="stroke:#181818;stroke-width:0.5;" width="15" x="536.7754" y="326.6094"/><rect fill="#F1F1F1" height="2" style="stroke:#181818;stroke-width:0.5;" width="4" x="534.7754" y="328.6094"/><rect fill="#F1F1F1" height="2" style="stroke:#181818;stroke-width:0.5;" width="4" x="534.7754" y="332.6094"/><text fill="#000000" font-family="sans-serif" font-size="14" lengthAdjust="spacing" textLength="111.2754" x="420.5" y="356.1426">GerenteController</text></g><!--entity TipoVehiculoController--><g id="elem_TipoVehiculoController"><rect fill="#F1F1F1" height="47.6094" rx="2.5" ry="2.5" style="stroke:#181818;stroke-width:0.5;" width="181.627" x="592" y="321.6094"/><rect fill="#F1F1F1" height="10" style="stroke:#181818;stroke-width:0.5;" width="15" x="753.627" y="326.6094"/><rect fill="#F1F1F1" height="2" style="stroke:#181818;stroke-width:0.5;" width="4" x="751.627" y="328.6094"/><rect fill="#F1F1F1" height="2" style="stroke:#181818;stroke-width:0.5;" width="4" x="751.627" y="332.6094"/><text fill="#000000" font-family="sans-serif" font-size="14" lengthAdjust="spacing" textLength="141.627" x="607" y="356.1426">TipoVehiculoController</text></g><!--entity MiCuentaController--><g id="elem_MiCuentaController"><rect fill="#F1F1F1" height="47.6094" rx="2.5" ry="2.5" style="stroke:#181818;stroke-width:0.5;" width="160.6064" x="136.5" y="429.6094"/><rect fill="#F1F1F1" height="10" style="stroke:#181818;stroke-width:0.5;" width="15" x="277.1064" y="434.6094"/><rect fill="#F1F1F1" height="2" style="stroke:#181818;stroke-width:0.5;" width="4" x="275.1064" y="436.6094"/><rect fill="#F1F1F1" height="2" style="stroke:#181818;stroke-width:0.5;" width="4" x="275.1064" y="440.6094"/><text fill="#000000" font-family="sans-serif" font-size="14" lengthAdjust="spacing" textLength="120.6064" x="151.5" y="464.1426">MiCuentaController</text></g><!--entity MiPerfilController--><g id="elem_MiPerfilController"><rect fill="#F1F1F1" height="47.6094" rx="2.5" ry="2.5" style="stroke:#181818;stroke-width:0.5;" width="147.3584" x="332.5" y="429.6094"/><rect fill="#F1F1F1" height="10" style="stroke:#181818;stroke-width:0.5;" width="15" x="459.8584" y="434.6094"/><rect fill="#F1F1F1" height="2" style="stroke:#181818;stroke-width:0.5;" width="4" x="457.8584" y="436.6094"/><rect fill="#F1F1F1" height="2" style="stroke:#181818;stroke-width:0.5;" width="4" x="457.8584" y="440.6094"/><text fill="#000000" font-family="sans-serif" font-size="14" lengthAdjust="spacing" textLength="107.3584" x="347.5" y="464.1426">MiPerfilController</text></g><!--entity FiltroAutenticacion--><g id="elem_FiltroAutenticacion"><rect fill="#F1F1F1" height="47.6094" rx="2.5" ry="2.5" style="stroke:#181818;stroke-width:0.5;" width="155.165" x="514.5" y="429.6094"/><rect fill="#F1F1F1" height="10" style="stroke:#181818;stroke-width:0.5;" width="15" x="649.665" y="434.6094"/><rect fill="#F1F1F1" height="2" style="stroke:#181818;stroke-width:0.5;" width="4" x="647.665" y="436.6094"/><rect fill="#F1F1F1" height="2" style="stroke:#181818;stroke-width:0.5;" width="4" x="647.665" y="440.6094"/><text fill="#000000" font-family="sans-serif" font-size="14" lengthAdjust="spacing" textLength="115.165" x="529.5" y="464.1426">FiltroAutenticacion</text></g><!--entity TarifaService--><g id="elem_TarifaService"><rect fill="#F1F1F1" height="47.6094" rx="2.5" ry="2.5" style="stroke:#181818;stroke-width:0.5;" width="122.4688" x="870" y="205.6094"/><rect fill="#F1F1F1" height="10" style="stroke:#181818;stroke-width:0.5;" width="15" x="972.4688" y="210.6094"/><rect fill="#F1F1F1" height="2" style="stroke:#181818;stroke-width:0.5;" width="4" x="970.4688" y="212.6094"/><rect fill="#F1F1F1" height="2" style="stroke:#181818;stroke-width:0.5;" width="4" x="970.4688" y="216.6094"/><text fill="#000000" font-family="sans-serif" font-size="14" lengthAdjust="spacing" textLength="82.4688" x="885" y="240.1426">TarifaService</text></g><!--entity RegistroIngresoService--><g id="elem_RegistroIngresoService"><rect fill="#F1F1F1" height="47.6094" rx="2.5" ry="2.5" style="stroke:#181818;stroke-width:0.5;" width="185.5098" x="1027" y="205.6094"/><rect fill="#F1F1F1" height="10" style="stroke:#181818;stroke-width:0.5;" width="15" x="1192.5098" y="210.6094"/><rect fill="#F1F1F1" height="2" style="stroke:#181818;stroke-width:0.5;" width="4" x="1190.5098" y="212.6094"/><rect fill="#F1F1F1" height="2" style="stroke:#181818;stroke-width:0.5;" width="4" x="1190.5098" y="216.6094"/><text fill="#000000" font-family="sans-serif" font-size="14" lengthAdjust="spacing" textLength="145.5098" x="1042" y="240.1426">RegistroIngresoService</text></g><!--entity PagoService--><g id="elem_PagoService"><rect fill="#F1F1F1" height="47.6094" rx="2.5" ry="2.5" style="stroke:#181818;stroke-width:0.5;" width="119.3789" x="1248.5" y="205.6094"/><rect fill="#F1F1F1" height="10" style="stroke:#181818;stroke-width:0.5;" width="15" x="1347.8789" y="210.6094"/><rect fill="#F1F1F1" height="2" style="stroke:#181818;stroke-width:0.5;" width="4" x="1345.8789" y="212.6094"/><rect fill="#F1F1F1" height="2" style="stroke:#181818;stroke-width:0.5;" width="4" x="1345.8789" y="216.6094"/><text fill="#000000" font-family="sans-serif" font-size="14" lengthAdjust="spacing" textLength="79.3789" x="1263.5" y="240.1426">PagoService</text></g><!--entity VehiculoService--><g id="elem_VehiculoService"><rect fill="#F1F1F1" height="47.6094" rx="2.5" ry="2.5" style="stroke:#181818;stroke-width:0.5;" width="140.3857" x="870" y="321.6094"/><rect fill="#F1F1F1" height="10" style="stroke:#181818;stroke-width:0.5;" width="15" x="990.3857" y="326.6094"/><rect fill="#F1F1F1" height="2" style="stroke:#181818;stroke-width:0.5;" width="4" x="988.3857" y="328.6094"/><rect fill="#F1F1F1" height="2" style="stroke:#181818;stroke-width:0.5;" width="4" x="988.3857" y="332.6094"/><text fill="#000000" font-family="sans-serif" font-size="14" lengthAdjust="spacing" textLength="100.3857" x="885" y="356.1426">VehiculoService</text></g><!--entity ClienteService--><g id="elem_ClienteService"><rect fill="#F1F1F1" height="47.6094" rx="2.5" ry="2.5" style="stroke:#181818;stroke-width:0.5;" width="130.2617" x="1045" y="321.6094"/><rect fill="#F1F1F1" height="10" style="stroke:#181818;stroke-width:0.5;" width="15" x="1155.2617" y="326.6094"/><rect fill="#F1F1F1" height="2" style="stroke:#181818;stroke-width:0.5;" width="4" x="1153.2617" y="328.6094"/><rect fill="#F1F1F1" height="2" style="stroke:#181818;stroke-width:0.5;" width="4" x="1153.2617" y="332.6094"/><text fill="#000000" font-family="sans-serif" font-size="14" lengthAdjust="spacing" textLength="90.2617" x="1060" y="356.1426">ClienteService</text></g><!--entity OperadorService--><g id="elem_OperadorService"><rect fill="#F1F1F1" height="47.6094" rx="2.5" ry="2.5" style="stroke:#181818;stroke-width:0.5;" width="145.8271" x="1210" y="321.6094"/><rect fill="#F1F1F1" height="10" style="stroke:#181818;stroke-width:0.5;" width="15" x="1335.8271" y="326.6094"/><rect fill="#F1F1F1" height="2" style="stroke:#181818;stroke-width:0.5;" width="4" x="1333.8271" y="328.6094"/><rect fill="#F1F1F1" height="2" style="stroke:#181818;stroke-width:0.5;" width="4" x="1333.8271" y="332.6094"/><text fill="#000000" font-family="sans-serif" font-size="14" lengthAdjust="spacing" textLength="105.8271" x="1225" y="356.1426">OperadorService</text></g><!--entity GerenteService--><g id="elem_GerenteService"><rect fill="#F1F1F1" height="47.6094" rx="2.5" ry="2.5" style="stroke:#181818;stroke-width:0.5;" width="137.2686" x="870.5" y="429.6094"/><rect fill="#F1F1F1" height="10" style="stroke:#181818;stroke-width:0.5;" width="15" x="987.7686" y="434.6094"/><rect fill="#F1F1F1" height="2" style="stroke:#181818;stroke-width:0.5;" width="4" x="985.7686" y="436.6094"/><rect fill="#F1F1F1" height="2" style="stroke:#181818;stroke-width:0.5;" width="4" x="985.7686" y="440.6094"/><text fill="#000000" font-family="sans-serif" font-size="14" lengthAdjust="spacing" textLength="97.2686" x="885.5" y="464.1426">GerenteService</text></g><!--entity TipoVehiculoService--><g id="elem_TipoVehiculoService"><rect fill="#F1F1F1" height="47.6094" rx="2.5" ry="2.5" style="stroke:#181818;stroke-width:0.5;" width="167.6201" x="1043" y="429.6094"/><rect fill="#F1F1F1" height="10" style="stroke:#181818;stroke-width:0.5;" width="15" x="1190.6201" y="434.6094"/><rect fill="#F1F1F1" height="2" style="stroke:#181818;stroke-width:0.5;" width="4" x="1188.6201" y="436.6094"/><rect fill="#F1F1F1" height="2" style="stroke:#181818;stroke-width:0.5;" width="4" x="1188.6201" y="440.6094"/><text fill="#000000" font-family="sans-serif" font-size="14" lengthAdjust="spacing" textLength="127.6201" x="1058" y="464.1426">TipoVehiculoService</text></g><!--entity PerfilService--><g id="elem_PerfilService"><rect fill="#F1F1F1" height="47.6094" rx="2.5" ry="2.5" style="stroke:#181818;stroke-width:0.5;" width="118.5791" x="1246.5" y="429.6094"/><rect fill="#F1F1F1" height="10" style="stroke:#181818;stroke-width:0.5;" width="15" x="1345.0791" y="434.6094"/><rect fill="#F1F1F1" height="2" style="stroke:#181818;stroke-width:0.5;" width="4" x="1343.0791" y="436.6094"/><rect fill="#F1F1F1" height="2" style="stroke:#181818;stroke-width:0.5;" width="4" x="1343.0791" y="440.6094"/><text fill="#000000" font-family="sans-serif" font-size="14" lengthAdjust="spacing" textLength="78.5791" x="1261.5" y="464.1426">PerfilService</text></g><!--entity UsuarioRepository--><g id="elem_UsuarioRepository"><rect fill="#F1F1F1" height="47.6094" rx="2.5" ry="2.5" style="stroke:#181818;stroke-width:0.5;" width="155.1582" x="571.5" y="585.6094"/><rect fill="#F1F1F1" height="10" style="stroke:#181818;stroke-width:0.5;" width="15" x="706.6582" y="590.6094"/><rect fill="#F1F1F1" height="2" style="stroke:#181818;stroke-width:0.5;" width="4" x="704.6582" y="592.6094"/><rect fill="#F1F1F1" height="2" style="stroke:#181818;stroke-width:0.5;" width="4" x="704.6582" y="596.6094"/><text fill="#000000" font-family="sans-serif" font-size="14" lengthAdjust="spacing" textLength="115.1582" x="586.5" y="620.1426">UsuarioRepository</text></g><!--entity VehiculoRepository--><g id="elem_VehiculoRepository"><rect fill="#F1F1F1" height="47.6094" rx="2.5" ry="2.5" style="stroke:#181818;stroke-width:0.5;" width="160.6201" x="761.5" y="585.6094"/><rect fill="#F1F1F1" height="10" style="stroke:#181818;stroke-width:0.5;" width="15" x="902.1201" y="590.6094"/><rect fill="#F1F1F1" height="2" style="stroke:#181818;stroke-width:0.5;" width="4" x="900.1201" y="592.6094"/><rect fill="#F1F1F1" height="2" style="stroke:#181818;stroke-width:0.5;" width="4" x="900.1201" y="596.6094"/><text fill="#000000" font-family="sans-serif" font-size="14" lengthAdjust="spacing" textLength="120.6201" x="776.5" y="620.1426">VehiculoRepository</text></g><!--entity TipoVehiculoRepository--><g id="elem_TipoVehiculoRepository"><rect fill="#F1F1F1" height="47.6094" rx="2.5" ry="2.5" style="stroke:#181818;stroke-width:0.5;" width="187.8545" x="958" y="585.6094"/><rect fill="#F1F1F1" height="10" style="stroke:#181818;stroke-width:0.5;" width="15" x="1125.8545" y="590.6094"/><rect fill="#F1F1F1" height="2" style="stroke:#181818;stroke-width:0.5;" width="4" x="1123.8545" y="592.6094"/><rect fill="#F1F1F1" height="2" style="stroke:#181818;stroke-width:0.5;" width="4" x="1123.8545" y="596.6094"/><text fill="#000000" font-family="sans-serif" font-size="14" lengthAdjust="spacing" textLength="147.8545" x="973" y="620.1426">TipoVehiculoRepository</text></g><!--entity RepositorioTarifa--><g id="elem_RepositorioTarifa"><rect fill="#F1F1F1" height="47.6094" rx="2.5" ry="2.5" style="stroke:#181818;stroke-width:0.5;" width="146.5996" x="574.5" y="701.6094"/><rect fill="#F1F1F1" height="10" style="stroke:#181818;stroke-width:0.5;" width="15" x="701.0996" y="706.6094"/><rect fill="#F1F1F1" height="2" style="stroke:#181818;stroke-width:0.5;" width="4" x="699.0996" y="708.6094"/><rect fill="#F1F1F1" height="2" style="stroke:#181818;stroke-width:0.5;" width="4" x="699.0996" y="712.6094"/><text fill="#000000" font-family="sans-serif" font-size="14" lengthAdjust="spacing" textLength="106.5996" x="589.5" y="736.1426">RepositorioTarifa</text></g><!--entity RepositorioRegistroIngreso--><g id="elem_RepositorioRegistroIngreso"><rect fill="#F1F1F1" height="47.6094" rx="2.5" ry="2.5" style="stroke:#181818;stroke-width:0.5;" width="209.6406" x="757" y="701.6094"/><rect fill="#F1F1F1" height="10" style="stroke:#181818;stroke-width:0.5;" width="15" x="946.6406" y="706.6094"/><rect fill="#F1F1F1" height="2" style="stroke:#181818;stroke-width:0.5;" width="4" x="944.6406" y="708.6094"/><rect fill="#F1F1F1" height="2" style="stroke:#181818;stroke-width:0.5;" width="4" x="944.6406" y="712.6094"/><text fill="#000000" font-family="sans-serif" font-size="14" lengthAdjust="spacing" textLength="169.6406" x="772" y="736.1426">RepositorioRegistroIngreso</text></g><!--entity RepositorioPago--><g id="elem_RepositorioPago"><rect fill="#F1F1F1" height="47.6094" rx="2.5" ry="2.5" style="stroke:#181818;stroke-width:0.5;" width="143.5098" x="1002" y="701.6094"/><rect fill="#F1F1F1" height="10" style="stroke:#181818;stroke-width:0.5;" width="15" x="1125.5098" y="706.6094"/><rect fill="#F1F1F1" height="2" style="stroke:#181818;stroke-width:0.5;" width="4" x="1123.5098" y="708.6094"/><rect fill="#F1F1F1" height="2" style="stroke:#181818;stroke-width:0.5;" width="4" x="1123.5098" y="712.6094"/><text fill="#000000" font-family="sans-serif" font-size="14" lengthAdjust="spacing" textLength="103.5098" x="1017" y="736.1426">RepositorioPago</text></g><!--entity DB--><g id="elem_DB"><rect fill="#F1F1F1" height="47.6094" rx="2.5" ry="2.5" style="stroke:#181818;stroke-width:0.5;" width="59.4482" x="618.5" y="809.6094"/><rect fill="#F1F1F1" height="10" style="stroke:#181818;stroke-width:0.5;" width="15" x="657.9482" y="814.6094"/><rect fill="#F1F1F1" height="2" style="stroke:#181818;stroke-width:0.5;" width="4" x="655.9482" y="816.6094"/><rect fill="#F1F1F1" height="2" style="stroke:#181818;stroke-width:0.5;" width="4" x="655.9482" y="820.6094"/><text fill="#000000" font-family="sans-serif" font-size="14" lengthAdjust="spacing" textLength="19.4482" x="633.5" y="844.1426">DB</text></g><!--entity PasswordHasher--><g id="elem_PasswordHasher"><rect fill="#F1F1F1" height="47.6094" rx="2.5" ry="2.5" style="stroke:#181818;stroke-width:0.5;" width="146.5996" x="712.5" y="809.6094"/><rect fill="#F1F1F1" height="10" style="stroke:#181818;stroke-width:0.5;" width="15" x="839.0996" y="814.6094"/><rect fill="#F1F1F1" height="2" style="stroke:#181818;stroke-width:0.5;" width="4" x="837.0996" y="816.6094"/><rect fill="#F1F1F1" height="2" style="stroke:#181818;stroke-width:0.5;" width="4" x="837.0996" y="820.6094"/><text fill="#000000" font-family="sans-serif" font-size="14" lengthAdjust="spacing" textLength="106.5996" x="727.5" y="844.1426">PasswordHasher</text></g><!--entity Usuario--><g id="elem_Usuario"><rect fill="#F1F1F1" height="47.6094" rx="2.5" ry="2.5" style="stroke:#181818;stroke-width:0.5;" width="88.2412" x="1266" y="701.6094"/><rect fill="#F1F1F1" height="10" style="stroke:#181818;stroke-width:0.5;" width="15" x="1334.2412" y="706.6094"/><rect fill="#F1F1F1" height="2" style="stroke:#181818;stroke-width:0.5;" width="4" x="1332.2412" y="708.6094"/><rect fill="#F1F1F1" height="2" style="stroke:#181818;stroke-width:0.5;" width="4" x="1332.2412" y="712.6094"/><text fill="#000000" font-family="sans-serif" font-size="14" lengthAdjust="spacing" textLength="48.2412" x="1281" y="736.1426">Usuario</text></g><!--entity Cliente--><g id="elem_Cliente"><rect fill="#F1F1F1" height="47.6094" rx="2.5" ry="2.5" style="stroke:#181818;stroke-width:0.5;" width="83.5791" x="1389" y="701.6094"/><rect fill="#F1F1F1" height="10" style="stroke:#181818;stroke-width:0.5;" width="15" x="1452.5791" y="706.6094"/><rect fill="#F1F1F1" height="2" style="stroke:#181818;stroke-width:0.5;" width="4" x="1450.5791" y="708.6094"/><rect fill="#F1F1F1" height="2" style="stroke:#181818;stroke-width:0.5;" width="4" x="1450.5791" y="712.6094"/><text fill="#000000" font-family="sans-serif" font-size="14" lengthAdjust="spacing" textLength="43.5791" x="1404" y="736.1426">Cliente</text></g><!--entity Operador--><g id="elem_Operador"><rect fill="#F1F1F1" height="47.6094" rx="2.5" ry="2.5" style="stroke:#181818;stroke-width:0.5;" width="99.1445" x="1508.5" y="701.6094"/><rect fill="#F1F1F1" height="10" style="stroke:#181818;stroke-width:0.5;" width="15" x="1587.6445" y="706.6094"/><rect fill="#F1F1F1" height="2" style="stroke:#181818;stroke-width:0.5;" width="4" x="1585.6445" y="708.6094"/><rect fill="#F1F1F1" height="2" style="stroke:#181818;stroke-width:0.5;" width="4" x="1585.6445" y="712.6094"/><text fill="#000000" font-family="sans-serif" font-size="14" lengthAdjust="spacing" textLength="59.1445" x="1523.5" y="736.1426">Operador</text></g><!--entity Gerente--><g id="elem_Gerente"><rect fill="#F1F1F1" height="47.6094" rx="2.5" ry="2.5" style="stroke:#181818;stroke-width:0.5;" width="90.5859" x="1642.5" y="701.6094"/><rect fill="#F1F1F1" height="10" style="stroke:#181818;stroke-width:0.5;" width="15" x="1713.0859" y="706.6094"/><rect fill="#F1F1F1" height="2" style="stroke:#181818;stroke-width:0.5;" width="4" x="1711.0859" y="708.6094"/><rect fill="#F1F1F1" height="2" style="stroke:#181818;stroke-width:0.5;" width="4" x="1711.0859" y="712.6094"/><text fill="#000000" font-family="sans-serif" font-size="14" lengthAdjust="spacing" textLength="50.5859" x="1657.5" y="736.1426">Gerente</text></g><!--entity Rol--><g id="elem_Rol"><rect fill="#F1F1F1" height="47.6094" rx="2.5" ry="2.5" style="stroke:#181818;stroke-width:0.5;" width="61.0068" x="1285.5" y="809.6094"/><rect fill="#F1F1F1" height="10" style="stroke:#181818;stroke-width:0.5;" width="15" x="1326.5068" y="814.6094"/><rect fill="#F1F1F1" height="2" style="stroke:#181818;stroke-width:0.5;" width="4" x="1324.5068" y="816.6094"/><rect fill="#F1F1F1" height="2" style="stroke:#181818;stroke-width:0.5;" width="4" x="1324.5068" y="820.6094"/><text fill="#000000" font-family="sans-serif" font-size="14" lengthAdjust="spacing" textLength="21.0068" x="1300.5" y="844.1426">Rol</text></g><!--entity Vehiculo--><g id="elem_Vehiculo"><rect fill="#F1F1F1" height="47.6094" rx="2.5" ry="2.5" style="stroke:#181818;stroke-width:0.5;" width="93.7031" x="1382" y="809.6094"/><rect fill="#F1F1F1" height="10" style="stroke:#181818;stroke-width:0.5;" width="15" x="1455.7031" y="814.6094"/><rect fill="#F1F1F1" height="2" style="stroke:#181818;stroke-width:0.5;" width="4" x="1453.7031" y="816.6094"/><rect fill="#F1F1F1" height="2" style="stroke:#181818;stroke-width:0.5;" width="4" x="1453.7031" y="820.6094"/><text fill="#000000" font-family="sans-serif" font-size="14" lengthAdjust="spacing" textLength="53.7031" x="1397" y="844.1426">Vehiculo</text></g><!--entity TipoVehiculo--><g id="elem_TipoVehiculo"><rect fill="#F1F1F1" height="47.6094" rx="2.5" ry="2.5" style="stroke:#181818;stroke-width:0.5;" width="120.9375" x="1511.5" y="809.6094"/><rect fill="#F1F1F1" height="10" style="stroke:#181818;stroke-width:0.5;" width="15" x="1612.4375" y="814.6094"/><rect fill="#F1F1F1" height="2" style="stroke:#181818;stroke-width:0.5;" width="4" x="1610.4375" y="816.6094"/><rect fill="#F1F1F1" height="2" style="stroke:#181818;stroke-width:0.5;" width="4" x="1610.4375" y="820.6094"/><text fill="#000000" font-family="sans-serif" font-size="14" lengthAdjust="spacing" textLength="80.9375" x="1526.5" y="844.1426">TipoVehiculo</text></g><!--entity Tarifa--><g id="elem_Tarifa"><rect fill="#F1F1F1" height="47.6094" rx="2.5" ry="2.5" style="stroke:#181818;stroke-width:0.5;" width="75.7861" x="1668" y="809.6094"/><rect fill="#F1F1F1" height="10" style="stroke:#181818;stroke-width:0.5;" width="15" x="1723.7861" y="814.6094"/><rect fill="#F1F1F1" height="2" style="stroke:#181818;stroke-width:0.5;" width="4" x="1721.7861" y="816.6094"/><rect fill="#F1F1F1" height="2" style="stroke:#181818;stroke-width:0.5;" width="4" x="1721.7861" y="820.6094"/><text fill="#000000" font-family="sans-serif" font-size="14" lengthAdjust="spacing" textLength="35.7861" x="1683" y="844.1426">Tarifa</text></g><!--entity RegistroIngreso--><g id="elem_RegistroIngreso"><rect fill="#F1F1F1" height="47.6094" rx="2.5" ry="2.5" style="stroke:#181818;stroke-width:0.5;" width="138.8271" x="1253.5" y="917.6094"/><rect fill="#F1F1F1" height="10" style="stroke:#181818;stroke-width:0.5;" width="15" x="1372.3271" y="922.6094"/><rect fill="#F1F1F1" height="2" style="stroke:#181818;stroke-width:0.5;" width="4" x="1370.3271" y="924.6094"/><rect fill="#F1F1F1" height="2" style="stroke:#181818;stroke-width:0.5;" width="4" x="1370.3271" y="928.6094"/><text fill="#000000" font-family="sans-serif" font-size="14" lengthAdjust="spacing" textLength="98.8271" x="1268.5" y="952.1426">RegistroIngreso</text></g><!--entity Pago--><g id="elem_Pago"><rect fill="#F1F1F1" height="47.6094" rx="2.5" ry="2.5" style="stroke:#181818;stroke-width:0.5;" width="72.6963" x="1427.5" y="917.6094"/><rect fill="#F1F1F1" height="10" style="stroke:#181818;stroke-width:0.5;" width="15" x="1480.1963" y="922.6094"/><rect fill="#F1F1F1" height="2" style="stroke:#181818;stroke-width:0.5;" width="4" x="1478.1963" y="924.6094"/><rect fill="#F1F1F1" height="2" style="stroke:#181818;stroke-width:0.5;" width="4" x="1478.1963" y="928.6094"/><text fill="#000000" font-family="sans-serif" font-size="14" lengthAdjust="spacing" textLength="32.6963" x="1442.5" y="952.1426">Pago</text></g><!--entity MovimientoCliente--><g id="elem_MovimientoCliente"><rect fill="#F1F1F1" height="47.6094" rx="2.5" ry="2.5" style="stroke:#181818;stroke-width:0.5;" width="155.1582" x="1535.5" y="917.6094"/><rect fill="#F1F1F1" height="10" style="stroke:#181818;stroke-width:0.5;" width="15" x="1670.6582" y="922.6094"/><rect fill="#F1F1F1" height="2" style="stroke:#181818;stroke-width:0.5;" width="4" x="1668.6582" y="924.6094"/><rect fill="#F1F1F1" height="2" style="stroke:#181818;stroke-width:0.5;" width="4" x="1668.6582" y="928.6094"/><text fill="#000000" font-family="sans-serif" font-size="14" lengthAdjust="spacing" textLength="115.1582" x="1550.5" y="952.1426">MovimientoCliente</text></g><!--entity VehiculoDentro--><g id="elem_VehiculoDentro"><rect fill="#F1F1F1" height="47.6094" rx="2.5" ry="2.5" style="stroke:#181818;stroke-width:0.5;" width="135.7236" x="1726" y="917.6094"/><rect fill="#F1F1F1" height="10" style="stroke:#181818;stroke-width:0.5;" width="15" x="1841.7236" y="922.6094"/><rect fill="#F1F1F1" height="2" style="stroke:#181818;stroke-width:0.5;" width="4" x="1839.7236" y="924.6094"/><rect fill="#F1F1F1" height="2" style="stroke:#181818;stroke-width:0.5;" width="4" x="1839.7236" y="928.6094"/><text fill="#000000" font-family="sans-serif" font-size="14" lengthAdjust="spacing" textLength="95.7236" x="1741" y="952.1426">VehiculoDentro</text></g><!--entity Formato--><g id="elem_Formato"><rect fill="#F1F1F1" height="47.6094" rx="2.5" ry="2.5" style="stroke:#181818;stroke-width:0.5;" width="92.124" x="1753" y="321.6094"/><rect fill="#F1F1F1" height="10" style="stroke:#181818;stroke-width:0.5;" width="15" x="1825.124" y="326.6094"/><rect fill="#F1F1F1" height="2" style="stroke:#181818;stroke-width:0.5;" width="4" x="1823.124" y="328.6094"/><rect fill="#F1F1F1" height="2" style="stroke:#181818;stroke-width:0.5;" width="4" x="1823.124" y="332.6094"/><text fill="#000000" font-family="sans-serif" font-size="14" lengthAdjust="spacing" textLength="52.124" x="1768" y="356.1426">Formato</text></g><!--entity PasswordPolicy--><g id="elem_PasswordPolicy"><rect fill="#F1F1F1" height="47.6094" rx="2.5" ry="2.5" style="stroke:#181818;stroke-width:0.5;" width="138.8135" x="1578.5" y="321.6094"/><rect fill="#F1F1F1" height="10" style="stroke:#181818;stroke-width:0.5;" width="15" x="1697.3135" y="326.6094"/><rect fill="#F1F1F1" height="2" style="stroke:#181818;stroke-width:0.5;" width="4" x="1695.3135" y="328.6094"/><rect fill="#F1F1F1" height="2" style="stroke:#181818;stroke-width:0.5;" width="4" x="1695.3135" y="332.6094"/><text fill="#000000" font-family="sans-serif" font-size="14" lengthAdjust="spacing" textLength="98.8135" x="1593.5" y="356.1426">PasswordPolicy</text></g><!--link Presentacion (controller) to Servicio (services)--><g id="link_Presentacion (controller)_Servicio (services)"><path d="M806.3523,113.6094 C806.9538,113.6094 807.586,113.6094 808.2485,113.6094 C813.5486,113.6094 820.7854,113.6094 829.677,113.6094 C847.4603,113.6094 871.8631,113.6094 900.6313,113.6094 C958.1675,113.6094 1033.165,113.6094 1107.59,113.6094 C1256.44,113.6094 1403,113.6094 1403,113.6094 C1403,113.6094 1403,120.1956 1403,130.2294 C1403,135.2463 1403,141.125 1403,147.4733 C1403,150.6474 1403,153.9389 1403,157.2988 C1403,158.1388 1403,158.983 1403,159.8308 C1403,160.2546 1403,154.6794 1403,155.1049 " fill="none" id="Presentacion (controller)-to-Servicio (services)" style="stroke:#181818;stroke-width:1;"/><polygon fill="#181818" points="1403,161.1049,1407,152.1049,1403,156.1049,1399,152.1049,1403,161.1049" style="stroke:#181818;stroke-width:1;"/></g><!--link Presentacion (controller) to Modelo (model)--><g id="link_Presentacion (controller)_Modelo (model)"><path d="M806.1328,101.6094 C806.8927,101.6094 807.7038,101.6094 808.5651,101.6094 C815.4553,101.6094 825.561,101.6094 838.4229,101.6094 C864.1465,101.6094 900.8945,101.6094 944.9922,101.6094 C1033.1875,101.6094 1150.7813,101.6094 1268.375,101.6094 C1503.5625,101.6094 1738.75,101.6094 1738.75,101.6094 C1738.75,101.6094 1738.75,257.6094 1738.75,413.6094 C1738.75,491.6094 1738.75,569.6094 1738.75,628.1094 C1738.75,635.4219 1738.75,642.4297 1738.75,649.0947 C1738.75,650.761 1738.75,652.4058 1738.75,654.0286 C1738.75,654.84 1738.75,649.646 1738.75,650.4463 " fill="none" id="Presentacion (controller)-to-Modelo (model)" style="stroke:#181818;stroke-width:1;"/><polygon fill="#181818" points="1738.75,656.4463,1742.75,647.4463,1738.75,651.4463,1734.75,647.4463,1738.75,656.4463" style="stroke:#181818;stroke-width:1;"/></g><!--link Presentacion (controller) to Transversal (util)--><g id="link_Presentacion (controller)_Transversal (util)"><path d="M806.3667,399.6094 C811.8232,399.6094 819.8262,399.6094 830.0117,399.6094 C850.3828,399.6094 879.4844,399.6094 914.4063,399.6094 C984.25,399.6094 1077.375,399.6094 1170.5,399.6094 C1356.75,399.6094 1543,399.6094 1543,399.6094 C1543,399.6094 1543,398.8678 1543,397.5585 C1543,396.9038 1543,396.1072 1543,395.1904 C1543,394.732 1543,400.2436 1543,399.7278 " fill="none" id="Presentacion (controller)-to-Transversal (util)" style="stroke:#181818;stroke-width:1;"/><polygon fill="#181818" points="1543,393.7278,1539,402.7278,1543,398.7278,1547,402.7278,1543,393.7278" style="stroke:#181818;stroke-width:1;"/></g><!--link Servicio (services) to Persistencia (persistence)--><g id="link_Servicio (services)_Persistencia (persistence)"><path d="M1403,502.0494 C1403,504.691 1403,507.3062 1403,509.8923 C1403,515.0645 1403,520.1204 1403,525.0385 C1403,534.8745 1403,544.159 1403,552.7191 C1403,586.9594 1403,609.6094 1403,609.6094 C1403,609.6094 1350.915,609.6094 1297.2025,609.6094 C1270.3463,609.6094 1243.0831,609.6094 1221.7203,609.6094 C1211.0389,609.6094 1201.8326,609.6094 1194.8897,609.6094 C1193.154,609.6094 1191.5598,609.6094 1190.1193,609.6094 C1189.7592,609.6094 1195.4087,609.6094 1195.068,609.6094 " fill="none" id="Servicio (services)-to-Persistencia (persistence)" style="stroke:#181818;stroke-width:1;"/><polygon fill="#181818" points="1189.068,609.6094,1198.068,613.6094,1194.068,609.6094,1198.068,605.6094,1189.068,609.6094" style="stroke:#181818;stroke-width:1;"/></g><!--link Servicio (services) to Modelo (model)--><g id="link_Servicio (services)_Modelo (model)"><path d="M1411.8198,242.6094 C1413.313,242.6094 1414.8997,242.6094 1416.5762,242.6094 C1429.9883,242.6094 1449.1484,242.6094 1472.1406,242.6094 C1518.125,242.6094 1579.4375,242.6094 1640.75,242.6094 C1763.375,242.6094 1886,242.6094 1886,242.6094 C1886,242.6094 1886,357.7644 1886,475.6194 C1886,534.5469 1886,594.1494 1886,640.37 C1886,646.1476 1886,645.7161 1886,651.048 " fill="none" id="Servicio (services)-to-Modelo (model)" style="stroke:#181818;stroke-width:1;"/><polygon fill="#181818" points="1886,657.048,1890,648.048,1886,652.048,1882,648.048,1886,657.048" style="stroke:#181818;stroke-width:1;"/></g><!--link Servicio (services) to Transversal (util)--><g id="link_Servicio (services)_Transversal (util)"><path d="M1411.3493,229.6094 C1411.4833,229.6094 1411.6188,229.6094 1411.7556,229.6094 C1416.134,229.6094 1421.9399,229.6094 1428.6761,229.6094 C1442.1484,229.6094 1459.3419,229.6094 1476.2788,229.6094 C1510.1525,229.6094 1543,229.6094 1543,229.6094 C1543,229.6094 1543,236.1956 1543,246.2294 C1543,251.2463 1543,257.125 1543,263.4733 C1543,266.6474 1543,269.9389 1543,273.2988 C1543,274.1388 1543,274.983 1543,275.8308 C1543,276.2546 1543,270.6794 1543,271.1049 " fill="none" id="Servicio (services)-to-Transversal (util)" style="stroke:#181818;stroke-width:1;"/><polygon fill="#181818" points="1543,277.1049,1547,268.1049,1543,272.1049,1539,268.1049,1543,277.1049" style="stroke:#181818;stroke-width:1;"/></g><!--link Persistencia (persistence) to Modelo (model)--><g id="link_Persistencia (persistence)_Modelo (model)"><path d="M1189.9138,779.6094 C1190.2553,779.6094 1190.6061,779.6094 1190.9661,779.6094 C1191.6862,779.6094 1192.4432,779.6094 1193.2366,779.6094 C1194.8233,779.6094 1196.5553,779.6094 1198.4271,779.6094 C1202.1707,779.6094 1206.4736,779.6094 1211.293,779.6094 C1216.1123,779.6094 1221.448,779.6094 1227.257,779.6094 C1227.6201,779.6094 1227.985,779.6094 1228.3517,779.6094 C1228.5351,779.6094 1222.719,779.6094 1222.9033,779.6094 " fill="none" id="Persistencia (persistence)-to-Modelo (model)" style="stroke:#181818;stroke-width:1;"/><polygon fill="#181818" points="1228.9033,779.6094,1219.9033,775.6094,1223.9033,779.6094,1219.9033,783.6094,1228.9033,779.6094" style="stroke:#181818;stroke-width:1;"/></g><!--SRC=[XPJFJYCn3CRlynGHf-wXhx0IMyJkIg0TjOKBuc1DpTGYZOEJ55KhtftCNsNIePpQ_EpO_huauybhL3S4jS01r0vL2My1FJgrLDVo5iXZvOE0iYng1HPSuLx9M8ZvIfD1VxAeMFoUau25wXLgtFXJh2wn0fXQOr7qN5sLWWwDXuhOg4N5nWjhZVBZIlqlb7gwuvhCQiJFFUFWCxZ6cbm46Rv1Smw7tB-cZktpQ0brZhOWz08PVCGzLK7dkIjDiITcz9z5WHrBXd-Zp2HloV8NrUzf5Hg_pd29ya8wmxUau_8w-BY5gjRav-8ZiN-3SgI8rSAr_z0DndUIkpZEkPQ66ilIzJ1yodfVKZIOahBUaHIbTaowjf97akgA8HU7HLCHg8KTLpZ8Ut0X2kGrMdRaMKwJkJES3f25nYLnvrXECzVoSEDSTr5_zKuwzywo-mDktnnYAkgUTwZZKHsQtqn8Ql74szJKhZdhYTOpXScDdpltyS2xYyT7EZHTEMq-bEfUtrJ5Li2uOpmHq6eHF8rARbaEu7bYGycQgbDRuDAdOhdyEN-Nlz-LcVhzXfdvY_btrAPVk8cNjfsDzNNgx42N7i1SWqy0]--></g></svg>